<?xml version="1.0" encoding="UTF-8"?>
<svg width="24px" height="24px" viewBox="0 0 24 24" version="1.1" xmlns="http://www.w3.org/2000/svg" xmlns:xlink="http://www.w3.org/1999/xlink">
    <title>category / care</title>
    <g id="category-/-care" stroke="none" stroke-width="1" fill="none" fill-rule="evenodd">
        <path d="M8.80218,12.156118 C9.47328,12.152998 10.13578,12.310038 10.73422,12.613938 C11.16314,12.842846 11.71782,12.875658 12.26704,12.875658 L12.26704,12.875658 L13.9022,12.875658 C14.69126,12.875658 15.57486,13.328778 15.57486,14.302998 C15.57486,15.215498 14.69126,15.730338 13.9022,15.730338 L13.9022,15.730338 L11.6482,15.730338 C11.452878,15.734258 11.295066,15.892066 11.29116,16.087378 C11.30836,16.278 11.457574,16.430344 11.6482,16.451438 L11.6482,16.451438 L15.3326,16.451438 C15.3326,16.451438 19.07562,13.247598 19.7264,12.871038 C20.37726,12.4937 21.1132,12.37416 21.7382,12.7976 L21.7382,12.7976 C21.893554,12.909196 21.989646,13.084972 21.999022,13.275596 C22.00762,13.466216 21.929492,13.651376 21.785742,13.776376 L21.785742,13.776376 L21.78496,13.777158 L16.88956,19.268558 C16.35284,19.745898 15.65988,20.009175 14.94112,20.0107376 L14.94112,20.0107376 L7.71072,20.0107376 L6.28338,21.4380776 L1.99978037,17.154478 L5.84518,13.366278 C6.62798,12.581898 7.69358,12.145962 8.80218,12.156118 Z M15.97424,2.16163484 C16.63362,2.15702 17.26956,2.40546 17.7508,2.85546 C18.2727,3.34842 18.57194,4.03202 18.5813,4.74998 C18.59066,5.46794 18.30864,6.15858 17.79926,6.66482 L17.79926,6.66482 L13.73986,10.72422 L9.68046,6.66482 C9.17266,6.15702 8.892182,5.4656 8.90312,4.74764 C8.91406,4.02968 9.21562,3.34686 9.73906,2.85546 C10.2203,2.40546 10.85624,2.157012 11.51562,2.16163484 C12.26406,2.16404 12.98126,2.4617 13.51094,2.98982 L13.51094,2.98982 L13.74454,3.22576 L13.97658,2.99216 C14.50706,2.4617 15.22502,2.163262 15.97424,2.16163484 Z" id="Fill-1" fill="#AA4EFF"></path>
    </g>
</svg>