<?xml version="1.0" encoding="UTF-8"?>
<svg width="24px" height="24px" viewBox="0 0 24 24" version="1.1" xmlns="http://www.w3.org/2000/svg" xmlns:xlink="http://www.w3.org/1999/xlink">
    <title>category / health</title>
    <g id="category-/-health" stroke="none" stroke-width="1" fill="none" fill-rule="evenodd">
        <path d="M16.3005527,3.30547911 L16.2767252,3.30547911 C14.7150843,3.30817442 13.201164,3.83909185 11.9912571,4.80749674 C10.6266454,3.63425244 9.33354427,3.00092222 8.13654119,3.00092222 L8.13654119,3 C6.49423983,2.99553159 4.92068051,3.64862363 3.77975029,4.80749444 C2.96685804,5.6501486 2.40413427,6.69400854 2.1511964,7.8268461 C1.89734353,8.95966066 1.96423681,10.1383324 2.343653,11.2369266 C2.343653,11.2369266 2.343653,11.2836392 2.36748045,11.2836392 L5.40738121,11.2836392 L6.84347991,9.07729786 L6.8443949,9.07819707 C6.98003023,8.85630726 7.22655843,8.72244757 7.49049972,8.72605819 C7.73611762,8.74222779 7.95881369,8.87338526 8.08895434,9.07819707 L10.1235077,12.9033838 L12.30195,9.38360487 L12.3028674,9.38270566 C12.4174249,9.20034179 12.6117139,9.07996558 12.82892,9.05480623 C13.0470387,9.033246 13.2633321,9.10151891 13.4273746,9.24256074 L15.4142777,11.1201058 L15.4151927,11.1192089 C15.6956274,11.3869236 15.7057158,11.8253034 15.4390201,12.1055979 C15.3070495,12.2448413 15.1228302,12.3256916 14.9294609,12.330183 C14.7351696,12.3346744 14.5472974,12.2619078 14.4088983,12.1289542 L13.0681235,10.8613969 L10.674352,14.6865835 C10.554295,14.9012866 10.3251752,15.0351348 10.0758973,15.0387224 L10.0520699,15.0387224 C9.7881286,15.0198575 9.55259912,14.8689359 9.4298019,14.6398525 L7.37052022,10.7914382 L6.38898708,12.3168214 C6.26159846,12.5279322 6.03981035,12.6671665 5.79053246,12.6923258 L3.03756615,12.6923258 C3.25293521,12.9267861 3.51596854,13.278948 3.8037232,13.5610132 L11.4882859,20.8114588 C11.6220889,20.9399209 11.8044758,21.0081961 11.9914166,20.9992133 C12.1811236,20.996518 12.3616618,20.9210583 12.4945474,20.7881024 L20.2028062,13.4900519 C21.3548102,12.3365855 22,10.785997 22,9.1717972 C22,7.5574824 21.3548102,6.00779079 20.2028062,4.85446239 C19.1717928,3.83842952 17.7623463,3.27876053 16.3004635,3.30571368 L16.3005527,3.30547911 Z" id="Fill-1" fill="#AA4EFF"></path>
    </g>
</svg>