<?xml version="1.0" encoding="UTF-8"?>
<svg width="24px" height="24px" viewBox="0 0 24 24" version="1.1" xmlns="http://www.w3.org/2000/svg" xmlns:xlink="http://www.w3.org/1999/xlink">
    <title>category / leisure</title>
    <g id="category-/-leisure" stroke="none" stroke-width="1" fill="none" fill-rule="evenodd">
        <path d="M11.8087699,4.0023067 C13.9195664,3.95174498 16.0465235,4.73241149 17.6571419,6.34302619 C20.7809511,9.46680267 20.7809511,14.5320947 17.6571515,17.6571608 C14.5338399,20.7809464 9.46677622,20.7809464 6.34298299,17.6571608 C4.73290799,16.0470261 3.95225563,13.9189539 4.00225745,11.8088022 L4.00225745,11.8088022 L7.26173629,15.0689129 C9.41813445,17.2115553 12.9038608,17.2064351 15.0551388,15.055162 C17.2064055,12.903249 17.2102473,9.41801061 15.0688881,7.26113737 L15.0688881,7.26113737 Z M10.2620322,4.18971147 L14.1520932,8.08104361 L14.1977205,8.12667076 C15.0040057,8.93661826 15.446521,10.0148309 15.4446516,11.1586137 C15.4427736,12.3024926 14.9965014,13.3787371 14.1870961,14.1875166 C13.3782668,14.9969201 12.3019718,15.443188 11.1581863,15.4450639 C10.0138248,15.4456873 8.93688981,15.0038003 8.12623643,14.1968929 L8.12623643,14.1968929 L8.08323327,14.1550099 L4.19061186,10.2611176 C4.50806336,8.82426885 5.22687342,7.45982251 6.3431702,6.34290458 C7.46001068,5.22475461 8.82572418,4.50722625 10.2620322,4.18971147 L10.2620322,4.18971147 Z" id="Fill-1" fill="#AA4EFF"></path>
    </g>
</svg>