<?xml version="1.0" encoding="UTF-8"?>
<svg width="24px" height="24px" viewBox="0 0 24 24" version="1.1" xmlns="http://www.w3.org/2000/svg" xmlns:xlink="http://www.w3.org/1999/xlink">
    <title>category / relationships</title>
    <g id="category-/-relationships" stroke="none" stroke-width="1" fill="none" fill-rule="evenodd">
        <path d="M19.4147409,11.4146471 C21.3015644,11.4146471 22.7839762,12.8970588 22.7839762,14.7838824 L22.7839762,14.7838824 L22.7839762,20.1764706 L16.0442115,20.1764706 L16.0454765,15.9984118 L12.6749471,18.0204706 C12.5397118,18.0887159 12.4727315,18.1556962 12.3375059,18.1556962 C12.2022706,18.2226765 12.1353,18.2226765 12.0000647,18.2226765 C11.8648294,18.2226765 11.7978588,18.1556962 11.6626235,18.1556962 C11.5273882,18.1556962 11.4604079,18.0874509 11.3251824,18.0204706 L11.3251824,18.0204706 L7.95465294,15.9984118 L7.95465294,20.1777647 L1.21488824,20.1777647 L1.21488824,14.7851765 C1.21488824,12.8970588 2.69859412,11.4146471 4.58541765,11.4146471 C5.19203529,11.4146471 5.73165,11.6168432 6.27255882,11.8860294 L6.27255882,11.8860294 L12.0012941,15.2565588 L17.7300294,11.8860294 C18.2683824,11.6168529 18.8080294,11.4146471 19.4146471,11.4146471 Z M12,9.45955882 C13.5506765,9.45955882 14.8308824,10.4705882 15.2352941,11.8190588 L15.2352941,11.8190588 L12,13.7058824 L8.76470588,11.8190588 C9.23608824,10.4705882 10.4493235,9.45955882 12,9.45955882 Z M4.58535294,6.02205882 C5.70253235,6.02205882 6.60741176,6.92693824 6.60741176,8.04411765 C6.60741176,9.16129706 5.70253235,10.0661765 4.58535294,10.0661765 C3.46943529,10.0661765 2.56329412,9.16129706 2.56329412,8.04411765 C2.56329412,6.92693824 3.46943529,6.02205882 4.58535294,6.02205882 Z M19.4146471,6.02205882 C20.5305647,6.02205882 21.4367059,6.92693824 21.4367059,8.04411765 C21.4367059,9.16129706 20.5305647,10.0661765 19.4146471,10.0661765 C18.2974676,10.0661765 17.3925882,9.16129706 17.3925882,8.04411765 C17.3925882,6.92693824 18.2974676,6.02205882 19.4146471,6.02205882 Z M12,4 C13.1171794,4 14.0220588,4.90487941 14.0220588,6.02205882 C14.0220588,7.13923824 13.1171794,8.04411765 12,8.04411765 C10.8828206,8.04411765 9.97794118,7.13923824 9.97794118,6.02205882 C9.97794118,4.90487941 10.8828206,4 12,4 Z" id="Fill-1" fill="#AA4EFF"></path>
    </g>
</svg>