<?xml version="1.0" encoding="UTF-8"?>
<svg width="24px" height="24px" viewBox="0 0 24 24" version="1.1" xmlns="http://www.w3.org/2000/svg" xmlns:xlink="http://www.w3.org/1999/xlink">
    <title>category / safety</title>
    <g id="category-/-safety" stroke="none" stroke-width="1" fill="none" fill-rule="evenodd">
        <path d="M12.0000429,21 C12.7068802,21 19.9577079,17.7131806 20,6.49531458 C20,6.42734618 19.9675626,6.36328181 19.9132491,6.32421958 C16.5797084,4.00620593 12.3615105,3 12,3 C11.6384902,3 7.42029239,4.00624593 4.08675085,6.32421958 C4.03243743,6.36328181 4,6.42734418 4,6.49531458 C4.04224377,17.7133806 11.2931592,21 11.999956,21 L12.0000429,21 Z M7.97109715,11.8523461 L8.78656132,11.0078012 L8.78656132,11.0070192 C8.86275075,10.9281127 8.98647335,10.9281127 9.06341013,11.0070192 L11.1596669,13.1788339 L14.9367915,9.26701091 C14.9737555,9.22872868 15.0235423,9.20763456 15.0755925,9.20763456 C15.1276426,9.20763456 15.1774294,9.22872868 15.2136384,9.26701091 L16.0291025,10.1115559 C16.106047,10.1912443 16.106047,10.3193771 16.0291025,10.3982776 L11.2985722,15.2983064 C11.2216277,15.3772129 11.097907,15.3772129 11.0217234,15.2983064 L7.97109522,12.1388878 C7.93413119,12.1006056 7.91301027,12.0490433 7.91301027,11.995137 C7.91301027,11.9412307 7.93413119,11.8896684 7.97109522,11.8521681 L7.97109715,11.8523461 Z" id="Fill-1" fill="#AA4EFF"></path>
    </g>
</svg>