<?xml version="1.0" encoding="UTF-8"?>
<svg width="24px" height="24px" viewBox="0 0 24 24" version="1.1" xmlns="http://www.w3.org/2000/svg" xmlns:xlink="http://www.w3.org/1999/xlink">
    <title>category / study</title>
    <g id="category-/-study" stroke="none" stroke-width="1" fill="none" fill-rule="evenodd">
        <path d="M21.8877004,11.7887402 C21.70616,11.547925 21.3668419,11.5030235 21.1301492,11.6886134 L12.0133877,18.8244602 L3.31554547,15.3406166 C2.99487326,14.5188662 3.06358558,13.7791405 3.19677978,13.284539 L11.3534367,16.6172378 C11.4620212,16.6612598 11.5756876,16.68284 11.6885287,16.68284 C11.8836421,16.68284 12.077066,16.6181018 12.2365334,16.4938051 L20.8792146,9.74974153 C21.13795,9.54775992 21.2694459,9.21890065 21.2219293,8.89002811 C21.1744127,8.56115557 20.9555496,8.28494065 20.6501663,8.16669856 L12.5927559,5.05939116 C12.3102623,4.95063098 11.9929999,4.99292722 11.7478376,5.17246692 L2.91013776,11.6522481 C2.81088494,11.7256174 2.72859737,11.817113 2.66666941,11.919823 C2.59880405,11.9906025 2.55214742,12.06311 2.52500128,12.106268 C2.12458477,12.7372534 1.64529242,14.2555737 2.39096664,15.9388054 C2.42574845,16.0164902 2.47579726,16.0820924 2.53687826,16.1338816 C2.59371577,16.2046611 2.66751854,16.2616299 2.75743526,16.2978848 L11.9022123,19.9611576 C11.9056045,19.9628833 11.9089988,19.9637473 11.912391,19.9646091 C11.9200267,19.9671989 11.9268132,19.9697887 11.9344467,19.9723785 C11.9463237,19.9758323 11.9573515,19.9792839 11.9692285,19.9827377 C11.9751681,19.9844635 11.9811055,19.9861893 11.9870429,19.9870533 C12.0014651,19.9905048 12.0167343,19.9930946 12.0311543,19.9948204 C12.0345487,19.9956844 12.03879,19.9956844 12.0421843,19.9965484 C12.0608457,19.9982742 12.0803583,20 12.0990218,20 C12.1270171,20 12.1550102,19.9974102 12.1821564,19.9930946 C12.191486,19.9913688 12.2008177,19.988779 12.2101516,19.9861893 C12.227966,19.9827377 12.2457804,19.9784199 12.2627478,19.9732425 C12.2737757,19.9697887 12.2848035,19.9646091 12.2958314,19.9602936 C12.3111006,19.9542522 12.3263697,19.9482108 12.3407919,19.9404414 C12.3509706,19.9352619 12.3611515,19.9292205 12.3713303,19.9231769 C12.3865994,19.9136839 12.4010216,19.9041888 12.4154438,19.8938296 C12.4196851,19.8912398 12.4239265,19.8886522 12.4281678,19.8851984 L21.7885931,12.5595367 C22.0252641,12.3748175 22.0702398,12.0295576 21.8878459,11.7887203 L21.8877004,11.7887402 Z" id="Fill-1" fill="#AA4EFF"></path>
    </g>
</svg>