<?xml version="1.0" encoding="UTF-8"?>
<svg width="24px" height="24px" viewBox="0 0 24 24" version="1.1" xmlns="http://www.w3.org/2000/svg" xmlns:xlink="http://www.w3.org/1999/xlink">
    <title>category / work</title>
    <g id="category-/-work" stroke="none" stroke-width="1" fill="none" fill-rule="evenodd">
        <path d="M16.9998199,7.99997882 L16.9998199,6.00034941 C16.9998199,4.89010419 16.109657,4 15.0001799,4 L8.99963983,4 C7.89009072,4 7,4.89015819 7,6.00034941 L7,7.99997882 L4.99963978,7.99997882 C3.89009085,7.99997882 3,8.89013701 3,9.99960823 L3,18.9996506 C3,20.1098958 3.89016285,21 4.99963978,21 L19.00036,21 C20.1099091,21 21,20.1098418 21,18.9996506 L21,9.99960823 C21,8.89006501 20.1098371,7.99997882 19.00036,7.99997882 L16.9998199,7.99997882 Z M15.0001799,6.00034941 L15.0001799,7.99997882 L8.99963983,7.99997882 L8.99963983,6.00034941 L15.0001799,6.00034941 Z" id="Fill-1" fill="#AA4EFF"></path>
    </g>
</svg>