<?xml version="1.0" encoding="UTF-8"?>
<svg width="120px" height="120px" viewBox="0 0 120 120" version="1.1" xmlns="http://www.w3.org/2000/svg" xmlns:xlink="http://www.w3.org/1999/xlink">
    <title>art_success</title>
    <g id="art_success" stroke="none" stroke-width="1" fill="none" fill-rule="evenodd">
        <g id="social-media" transform="translate(10.000000, 13.000000)" fill-rule="nonzero">
            <path d="M100,6.89648437 L100,68.9654297 C99.9888672,72.7697266 96.9076172,75.8507812 93.1035156,75.8619141 L71.1207031,75.8619141 L50,94 L28.8792969,75.8621094 L6.89648438,75.8621094 C3.09238281,75.8509766 0.0111328125,72.7697266 0,68.9654297 L0,6.89648437 C0.0111328125,3.09238281 3.09238281,0.0111328125 6.89648438,0 L93.1035156,0 C96.9076172,0.0111328125 99.9888672,3.09238281 100,6.89648437 Z" id="Path" fill="#42165F"></path>
            <path d="M25.8621094,36.2068359 L29.3103516,36.2068359 C31.2148437,36.2068359 32.7585937,37.7505859 32.7585937,39.6550781 L32.7585937,56.8964844 C32.7585937,58.8009766 31.2148437,60.3447266 29.3103516,60.3447266 L25.8621094,60.3447266 C23.9576172,60.3447266 22.4138672,58.8007813 22.4138672,56.8964844 L22.4138672,39.6550781 C22.4138672,37.7507813 23.9576172,36.2068359 25.8621094,36.2068359 Z" id="Path" fill="#87DBFF"></path>
            <path d="M39.6550566,38.1765625 L39.6550566,57.8339844 C39.6570312,58.3677734 39.9056641,58.8705078 40.3283203,59.1962891 C42.6222656,61.0083984 45.4474609,62.0173828 48.3703125,62.0690037 L64.7841797,62.0690037 C66.5615234,62.0773438 68.2205078,61.1798828 69.1865234,59.6880859 C73.2984375,53.3431641 76.1285156,46.2546875 77.5169922,38.8226563 C77.7664062,37.3095703 77.3375,35.7634766 76.3439453,34.5953125 C75.3503906,33.4271484 73.8931641,32.7554688 72.3597656,32.7587891 L67.0181641,32.7587891 C64.7011719,32.7007813 62.6302734,31.2986328 61.7162109,29.1689453 C60.8421875,26.4841797 62.5822266,24.0388672 63.3589844,21.5589844 C64.1867187,18.9160156 65.9855469,10.2935547 60.9232422,10.3446933 C59.65625,10.3693359 58.5283203,11.1537109 58.0648437,12.3332031 C55.8644531,17.8464844 49.1597656,30.1964844 41.1994141,35.3267578 C40.2330078,35.9515625 39.6509766,37.0255859 39.6550566,38.1765625 Z" id="Path" fill="#FDD7BD"></path>
        </g>
    </g>
</svg>