<?xml version="1.0" encoding="UTF-8"?>
<svg width="40px" height="40px" viewBox="0 0 40 40" version="1.1" xmlns="http://www.w3.org/2000/svg" xmlns:xlink="http://www.w3.org/1999/xlink">
    <title>EFE42230-81F5-43DD-BE44-498D05EB028F</title>
    <g id="Direct-Contact" stroke="none" stroke-width="1" fill="none" fill-rule="evenodd">
        <g id="Caregiver---Direct-Contact---Rejected" transform="translate(-159.000000, -136.000000)">
            <rect fill="#FAFAFA" x="0" y="0" width="360" height="640"></rect>
            <g id="Group-3" transform="translate(159.000000, 136.000000)">
                <path d="M27.2370376,26.9389347 C26.5404496,26.9389347 25.8786909,27.531049 24.3984135,29.0113625 C23.9978754,29.3944953 23.4580197,29.9517793 23.3535315,30.0214398 C22.8833346,30.1607608 19.5222973,30.0214398 15.6386798,26.155282 C13.0504373,23.6278875 11.1761697,20.4626258 10.2052932,16.9773717 C10.74297,16.3874308 11.3241807,15.8410138 11.9467633,15.3403499 C13.2528937,14.2606121 13.6882333,13.8600921 13.7927215,13.3375826 C13.9842832,12.2056273 9.70023902,5.44867022 8.74245835,4.28171751 C8.32450553,3.81150913 7.95882468,3.48035463 7.4885999,3.48035463 C6.09542385,3.42837638 0,11.0563405 0,12.0315876 C0,12.1186632 0.121902904,20.2342508 10.4488204,30.5958324 C18.5816249,38.7288352 24.6246653,40 27.6194365,40 L27.8109983,40 L27.9329012,39.1292437 L27.9329012,40 C29.1693728,40 34.8987814,35.4894547 35.8567293,34.4968204 C36.2311481,34.2159994 36.4749651,33.7936952 36.5360342,33.3299792 C36.5707598,31.8322784 27.8285801,26.9384889 27.2362017,26.9384889 L27.2370376,26.9389347 Z" id="Fill-1" fill="#333333"></path>
                <path d="M30.4220818,19.1563034 C32.9624548,19.1563034 35.3983395,18.1462261 37.194032,16.3502669 C38.9897245,14.5543078 40,12.1183636 40,9.57815168 C40,7.03793972 38.9899474,4.60177269 37.194032,2.80603643 C35.3981166,1.01030018 32.9622319,0 30.4220818,0 C27.8819318,0 25.4458242,1.01007726 23.6501317,2.80603643 C21.8544392,4.6019956 20.8441637,7.03793972 20.8441637,9.57815168 C20.848516,12.1164131 21.858563,14.5501839 23.6544784,16.3463659 C25.4503938,18.1423251 27.8840494,19.1524024 30.4225277,19.1567492 L30.4220818,19.1563034 Z M27.3397077,7.73198122 C26.9979449,7.39021009 26.9979449,6.83726175 27.3397077,6.49547947 C27.6814705,6.15369719 28.2344054,6.15370833 28.5761793,6.49547947 L30.4221376,8.34148274 L32.2680958,6.49547947 C32.6098586,6.15370833 33.1627935,6.15370833 33.5045674,6.49547947 C33.8463414,6.8372506 33.8463302,7.39019894 33.5045674,7.73198122 L31.6586092,9.5779845 L33.5045674,11.4239878 C33.8376257,11.7679379 33.8376257,12.3165338 33.5045674,12.6604895 C33.3369516,12.821578 33.1105605,12.9108326 32.8776382,12.9043013 C32.6490682,12.9064803 32.4313872,12.8194046 32.2680958,12.6604895 L30.4221376,10.8144862 L28.5761793,12.6604895 C28.4129158,12.8194046 28.1952348,12.9064803 27.9666369,12.9043013 C27.7337146,12.9108326 27.5073235,12.821578 27.3397077,12.6604895 C27.0066495,12.3165394 27.0066495,11.7679435 27.3397077,11.4239878 L29.185666,9.5779845 L27.3397077,7.73198122 Z" id="Fill-2" fill="#DA471F"></path>
            </g>
        </g>
    </g>
</svg>