<?xml version="1.0" encoding="UTF-8"?>
<svg width="80px" height="80px" viewBox="0 0 80 80" version="1.1" xmlns="http://www.w3.org/2000/svg" xmlns:xlink="http://www.w3.org/1999/xlink">
    <title>Art / 40 / Retail Copy 4</title>
    <g id="Manager" stroke="none" stroke-width="1" fill="none" fill-rule="evenodd">
        <g id="Group" fill="#CCCCCC" fill-rule="nonzero">
            <g id="Group-2" transform="translate(10.000000, 15.000000)">
                <g id="Group">
                    <path d="M10.5340962,4.10320041 C10.9996485,3.83441368 11.6009108,4.00425176 11.8770532,4.48254438 L11.8770532,4.48254438 L16.8238102,13.0505788 C17.0999525,13.5288714 16.9464055,14.1344989 16.4808532,14.4032856 C16.0153009,14.6720724 15.4140386,14.5022343 15.1378962,14.0239417 L15.1378962,14.0239417 L10.1911393,5.45590725 C9.91499688,4.97761463 10.0685439,4.37198715 10.5340962,4.10320041 Z M47.7188128,3.80653251 C48.1843651,4.07531925 48.3379122,4.68094673 48.0617698,5.15923935 L43.1150128,13.7272738 C42.8388705,14.2055664 42.2376082,14.3754045 41.7720559,14.1066177 C41.3065036,13.837831 41.1529565,13.2322035 41.4290989,12.7539109 L46.3758559,4.18587648 C46.6519983,3.70758386 47.2532606,3.53774578 47.7188128,3.80653251 Z M29,4.16333634e-17 C29.5522847,4.16333634e-17 30,0.451723773 30,1.00895329 L30,10.9910467 C30,11.5482762 29.5522847,12 29,12 C28.4477153,12 28,11.5482762 28,10.9910467 L28,1.00895329 C28,0.451723773 28.4477153,4.16333634e-17 29,4.16333634e-17 Z" id="Icon"></path>
                </g>
                <path d="M55.8089093,29.8 L59.2,29.8 L59.2,47.4 C59.2,49.1673112 57.7673112,50.6 56,50.6 L3.2,50.6 C1.4326888,50.6 2.84217094e-14,49.1673112 2.84217094e-14,47.4 L2.84217094e-14,29.8 L16.4444444,21 L42.7555556,21 L59.2,29.8 L55.8089093,29.8 Z M3.39109068,29.8 L2.84217094e-14,29.8 L3.39109068,29.8 L20.8,29.8 L20.8,34.6 C20.8,36.3673112 22.2326888,37.8 24,37.8 L35.2,37.8 C36.9673112,37.8 38.4,36.3673112 38.4,34.6 L38.4,29.8 L55.8089093,29.8 L42.3543639,22.6 L16.8456361,22.6 L3.39109068,29.8 L3.39109068,29.8 Z M16.8456361,22.6 L17.1993638,22.4107079 L16.4444444,22.6 L16.8456361,22.6 Z M42.0006362,22.4107079 L42.7555556,22.6 L42.3543639,22.6 L42.0006362,22.4107079 Z M42.7555556,22.6 L42.0006362,22.4107079 L42.3543639,22.6 L42.7555556,22.6 Z M16.4444444,22.6 L16.8456361,22.6 L17.1993638,22.4107079 L16.4444444,22.6 Z" id="Shape"></path>
            </g>
        </g>
    </g>
</svg>