<svg xmlns="http://www.w3.org/2000/svg" width="24" height="24" viewBox="0 0 24 24">
    <g fill="none" fill-rule="evenodd">
        <g>
            <path fill="#FAFAFA" d="M0 0H360V640H0z" transform="translate(-16 -297)"/>
            <g fill="#AA4EFF">
                <path d="M23.947 19.176l-3.35-2.996c.464-.711.714-1.542.714-2.412 0-2.437-1.983-4.42-4.42-4.42-2.438 0-4.422 1.982-4.422 4.42 0 2.438 1.983 4.42 4.421 4.42.9 0 1.758-.267 2.486-.764l3.41 3.05 1.16-1.298zm-7.055-2.728c-1.48 0-2.681-1.202-2.681-2.681 0-1.478 1.202-2.68 2.681-2.68 1.478 0 2.68 1.202 2.68 2.68 0 .716-.28 1.39-.785 1.896-.507.506-1.18.785-1.895.785z" transform="translate(-16 -297) translate(16 298)"/>
                <path d="M11.197 13.725c0-2.737 2.009-5.013 4.63-5.43V5.48c0-.433-.023-.86-.113-1.285-.14-.678-.414-1.326-.806-1.897-.76-1.11-1.961-1.892-3.301-2.069-.277-.036-.555-.039-.833-.039-.3 0-.595.018-.89.07-.659.118-1.286.38-1.836.762-1.129.784-1.884 2.033-2.108 3.383-.064.383-.074.766-.074 1.15v3.482c0 1.346.507 2.673 1.439 3.647.46.48 1.017.867 1.631 1.12.591.244 1.214.347 1.85.347.143 0 .284-.001.425-.006-.006-.14-.014-.279-.014-.42zM21.023 20.477l-1.981-1.774c-.728.344-1.525.522-2.344.522-2.563 0-4.722-1.76-5.33-4.135H6.14c-1.334 0-2.647.44-3.708 1.247-1.076.82-1.866 1.99-2.215 3.296-.074.277-.127.56-.161.844h20.968z" transform="translate(-16 -297) translate(16 298)"/>
            </g>
        </g>
    </g>
</svg>
