<?xml version="1.0" encoding="UTF-8"?>
<svg width="80px" height="80px" viewBox="0 0 80 80" version="1.1" xmlns="http://www.w3.org/2000/svg" xmlns:xlink="http://www.w3.org/1999/xlink">
    <title>F3856456-1BAC-471C-A717-A47D7ED3F01F</title>
    <g id="Naaste" stroke="none" stroke-width="1" fill="none" fill-rule="evenodd">
        <g id="Expired" transform="translate(-140.000000, -168.000000)" fill="#6D0EB1" fill-rule="nonzero">
            <g id="Art-/-80-/-Progress-(Fail)" transform="translate(140.000000, 168.000000)">
                <path d="M40,0 C62.09139,0 80,17.90861 80,40 C80,62.09139 62.09139,80 40,80 C17.90861,80 0,62.09139 0,40 C0,17.90861 17.90861,0 40,0 Z M40,4 C20.117749,4 4,20.117749 4,40 C4,59.882251 20.117749,76 40,76 C59.882251,76 76,59.882251 76,40 C76,20.117749 59.882251,4 40,4 Z M49,63.5 C50.1045695,63.5 51,64.3954305 51,65.5 C51,66.5543618 50.1841222,67.4181651 49.1492623,67.4945143 L49,67.5 L31,67.5 C29.8954305,67.5 29,66.6045695 29,65.5 C29,64.4456382 29.8158778,63.5818349 30.8507377,63.5054857 L31,63.5 L49,63.5 Z M31,42 C32.1045695,42 33,42.8954305 33,44 C33,49.5228475 28.5228475,54 23,54 C17.4771525,54 13,49.5228475 13,44 C13,42.8954305 13.8954305,42 15,42 C16.1045695,42 17,42.8954305 17,44 C17,47.3137085 19.6862915,50 23,50 C26.2383969,50 28.8775718,47.4344251 28.9958615,44.2249383 L29,44 C29,42.8954305 29.8954305,42 31,42 Z M65,42 C66.1045695,42 67,42.8954305 67,44 C67,49.5228475 62.5228475,54 57,54 C51.4771525,54 47,49.5228475 47,44 C47,42.8954305 47.8954305,42 49,42 C50.1045695,42 51,42.8954305 51,44 C51,47.3137085 53.6862915,50 57,50 C60.2383969,50 62.8775718,47.4344251 62.9958615,44.2249383 L63,44 C63,42.8954305 63.8954305,42 65,42 Z M51.4822746,28.0589158 L51.6324555,28.1026334 L66.6324555,33.1026334 C67.6803422,33.4519289 68.2466621,34.5845689 67.8973666,35.6324555 C67.5647042,36.6304428 66.5215253,37.1916349 65.5177254,36.9410842 L65.3675445,36.8973666 L50.3675445,31.8973666 C49.3196578,31.5480711 48.7533379,30.4154311 49.1026334,29.3675445 C49.4352958,28.3695572 50.4784747,27.8083651 51.4822746,28.0589158 Z M29.5177254,28.0589158 C30.5215253,27.8083651 31.5647042,28.3695572 31.8973666,29.3675445 C32.2466621,30.4154311 31.6803422,31.5480711 30.6324555,31.8973666 L30.6324555,31.8973666 L15.6324555,36.8973666 L15.4822746,36.9410842 C14.4784747,37.1916349 13.4352958,36.6304428 13.1026334,35.6324555 C12.7533379,34.5845689 13.3196578,33.4519289 14.3675445,33.1026334 L14.3675445,33.1026334 L29.3675445,28.1026334 Z" id="Combined-Shape"></path>
            </g>
        </g>
    </g>
</svg>